<mxfile host="app.diagrams.net" modified="2021-10-25T02:24:18.532Z" agent="5.0 (Windows NT 10.0; Win64; x64) AppleWebKit/537.36 (KHTML, like Gecko) Chrome/94.0.4606.81 Safari/537.36" etag="1jsrl3uTjyM1cbAb6LIL" version="15.5.9" type="github">
  <diagram id="viteeTy0K1HjYWZJYcql" name="Petshop">
    <mxGraphModel dx="1479" dy="1532" grid="1" gridSize="10" guides="1" tooltips="1" connect="1" arrows="1" fold="1" page="1" pageScale="1" pageWidth="827" pageHeight="1169" math="0" shadow="0">
      <root>
        <mxCell id="0" />
        <mxCell id="1" parent="0" />
        <mxCell id="WP7a5tdKXRNmzQLdABPu-4" value="&lt;font style=&quot;vertical-align: inherit&quot;&gt;&lt;font style=&quot;vertical-align: inherit&quot;&gt;CLIENTE&lt;/font&gt;&lt;/font&gt;" style="whiteSpace=wrap;html=1;align=center;" vertex="1" parent="1">
          <mxGeometry x="100" y="90" width="130" height="50" as="geometry" />
        </mxCell>
        <mxCell id="WP7a5tdKXRNmzQLdABPu-5" value="&lt;font style=&quot;vertical-align: inherit&quot;&gt;&lt;font style=&quot;vertical-align: inherit&quot;&gt;id_cliente&lt;/font&gt;&lt;/font&gt;" style="ellipse;whiteSpace=wrap;html=1;align=center;fontStyle=4;" vertex="1" parent="1">
          <mxGeometry x="240" y="95" width="100" height="45" as="geometry" />
        </mxCell>
        <mxCell id="WP7a5tdKXRNmzQLdABPu-7" value="nome" style="ellipse;whiteSpace=wrap;html=1;align=center;" vertex="1" parent="1">
          <mxGeometry x="10" y="40" width="105" height="40" as="geometry" />
        </mxCell>
        <mxCell id="WP7a5tdKXRNmzQLdABPu-8" value="cpf" style="ellipse;whiteSpace=wrap;html=1;align=center;" vertex="1" parent="1">
          <mxGeometry x="120" y="40" width="105" height="40" as="geometry" />
        </mxCell>
        <mxCell id="WP7a5tdKXRNmzQLdABPu-10" value="data de nasc" style="ellipse;whiteSpace=wrap;html=1;align=center;" vertex="1" parent="1">
          <mxGeometry x="240" y="40" width="100" height="40" as="geometry" />
        </mxCell>
        <mxCell id="WP7a5tdKXRNmzQLdABPu-11" value="email" style="ellipse;whiteSpace=wrap;html=1;align=center;" vertex="1" parent="1">
          <mxGeometry x="120" y="160" width="105" height="40" as="geometry" />
        </mxCell>
        <mxCell id="WP7a5tdKXRNmzQLdABPu-13" value="telefone" style="ellipse;shape=doubleEllipse;margin=3;whiteSpace=wrap;html=1;align=center;" vertex="1" parent="1">
          <mxGeometry x="240" y="160" width="100" height="40" as="geometry" />
        </mxCell>
        <mxCell id="WP7a5tdKXRNmzQLdABPu-15" value="&lt;font style=&quot;vertical-align: inherit&quot;&gt;&lt;font style=&quot;vertical-align: inherit&quot;&gt;Animal&lt;/font&gt;&lt;/font&gt;" style="whiteSpace=wrap;html=1;align=center;" vertex="1" parent="1">
          <mxGeometry x="517.5" y="-85" width="130" height="50" as="geometry" />
        </mxCell>
        <mxCell id="WP7a5tdKXRNmzQLdABPu-16" value="&lt;font style=&quot;vertical-align: inherit&quot;&gt;&lt;font style=&quot;vertical-align: inherit&quot;&gt;id_animal&lt;/font&gt;&lt;/font&gt;" style="ellipse;whiteSpace=wrap;html=1;align=center;fontStyle=4;" vertex="1" parent="1">
          <mxGeometry x="720" y="-80" width="100" height="40" as="geometry" />
        </mxCell>
        <mxCell id="WP7a5tdKXRNmzQLdABPu-20" value="nome" style="ellipse;whiteSpace=wrap;html=1;align=center;" vertex="1" parent="1">
          <mxGeometry x="364" y="-150" width="100" height="40" as="geometry" />
        </mxCell>
        <mxCell id="WP7a5tdKXRNmzQLdABPu-22" value="idade" style="ellipse;whiteSpace=wrap;html=1;align=center;" vertex="1" parent="1">
          <mxGeometry x="600" y="-150" width="100" height="40" as="geometry" />
        </mxCell>
        <mxCell id="WP7a5tdKXRNmzQLdABPu-33" value="raça" style="ellipse;whiteSpace=wrap;html=1;align=center;" vertex="1" parent="1">
          <mxGeometry x="720" y="-150" width="100" height="40" as="geometry" />
        </mxCell>
        <mxCell id="WP7a5tdKXRNmzQLdABPu-37" value="especie" style="ellipse;whiteSpace=wrap;html=1;align=center;" vertex="1" parent="1">
          <mxGeometry x="350" y="-20" width="100" height="40" as="geometry" />
        </mxCell>
        <mxCell id="WP7a5tdKXRNmzQLdABPu-38" value="sexo" style="ellipse;whiteSpace=wrap;html=1;align=center;" vertex="1" parent="1">
          <mxGeometry x="590" y="-10" width="100" height="40" as="geometry" />
        </mxCell>
        <mxCell id="WP7a5tdKXRNmzQLdABPu-39" value="raça" style="ellipse;whiteSpace=wrap;html=1;align=center;" vertex="1" parent="1">
          <mxGeometry x="720" y="-10" width="100" height="40" as="geometry" />
        </mxCell>
        <mxCell id="WP7a5tdKXRNmzQLdABPu-40" value="ALIMENTO" style="whiteSpace=wrap;html=1;align=center;" vertex="1" parent="1">
          <mxGeometry x="530" y="260" width="130" height="50" as="geometry" />
        </mxCell>
        <mxCell id="WP7a5tdKXRNmzQLdABPu-41" value="&lt;font style=&quot;vertical-align: inherit&quot;&gt;&lt;font style=&quot;vertical-align: inherit&quot;&gt;FUNCIONARIO&lt;/font&gt;&lt;/font&gt;" style="whiteSpace=wrap;html=1;align=center;" vertex="1" parent="1">
          <mxGeometry x="-80" y="270" width="130" height="50" as="geometry" />
        </mxCell>
        <mxCell id="WP7a5tdKXRNmzQLdABPu-47" value="id_funcionario" style="ellipse;whiteSpace=wrap;html=1;align=center;fontStyle=4;" vertex="1" parent="1">
          <mxGeometry x="60" y="280" width="100" height="45" as="geometry" />
        </mxCell>
        <mxCell id="WP7a5tdKXRNmzQLdABPu-48" value="nome" style="ellipse;whiteSpace=wrap;html=1;align=center;" vertex="1" parent="1">
          <mxGeometry x="-200" y="220" width="105" height="40" as="geometry" />
        </mxCell>
        <mxCell id="WP7a5tdKXRNmzQLdABPu-49" value="cpf" style="ellipse;whiteSpace=wrap;html=1;align=center;" vertex="1" parent="1">
          <mxGeometry x="-67.5" y="220" width="105" height="40" as="geometry" />
        </mxCell>
        <mxCell id="WP7a5tdKXRNmzQLdABPu-50" value="data de nasc" style="ellipse;whiteSpace=wrap;html=1;align=center;" vertex="1" parent="1">
          <mxGeometry x="60" y="220" width="100" height="40" as="geometry" />
        </mxCell>
        <mxCell id="WP7a5tdKXRNmzQLdABPu-51" value="departamento" style="ellipse;whiteSpace=wrap;html=1;align=center;" vertex="1" parent="1">
          <mxGeometry x="57.5" y="340" width="105" height="40" as="geometry" />
        </mxCell>
        <mxCell id="WP7a5tdKXRNmzQLdABPu-52" value="email" style="ellipse;whiteSpace=wrap;html=1;align=center;" vertex="1" parent="1">
          <mxGeometry x="-200" y="280" width="105" height="40" as="geometry" />
        </mxCell>
        <mxCell id="WP7a5tdKXRNmzQLdABPu-58" value="endereco" style="ellipse;whiteSpace=wrap;html=1;align=center;" vertex="1" parent="1">
          <mxGeometry x="-62.5" y="340" width="100" height="40" as="geometry" />
        </mxCell>
        <mxCell id="WP7a5tdKXRNmzQLdABPu-59" value="endereco" style="ellipse;whiteSpace=wrap;html=1;align=center;" vertex="1" parent="1">
          <mxGeometry x="-20" y="95" width="100" height="40" as="geometry" />
        </mxCell>
        <mxCell id="WP7a5tdKXRNmzQLdABPu-64" value="id_alimento" style="ellipse;whiteSpace=wrap;html=1;align=center;fontStyle=4;" vertex="1" parent="1">
          <mxGeometry x="670" y="265" width="100" height="45" as="geometry" />
        </mxCell>
        <mxCell id="WP7a5tdKXRNmzQLdABPu-65" value="nome" style="ellipse;whiteSpace=wrap;html=1;align=center;" vertex="1" parent="1">
          <mxGeometry x="405" y="225" width="105" height="40" as="geometry" />
        </mxCell>
        <mxCell id="WP7a5tdKXRNmzQLdABPu-66" value="marca" style="ellipse;whiteSpace=wrap;html=1;align=center;" vertex="1" parent="1">
          <mxGeometry x="540" y="215" width="105" height="40" as="geometry" />
        </mxCell>
        <mxCell id="WP7a5tdKXRNmzQLdABPu-67" value="tipo" style="ellipse;whiteSpace=wrap;html=1;align=center;" vertex="1" parent="1">
          <mxGeometry x="670" y="220" width="100" height="40" as="geometry" />
        </mxCell>
        <mxCell id="WP7a5tdKXRNmzQLdABPu-72" value="preco" style="ellipse;whiteSpace=wrap;html=1;align=center;" vertex="1" parent="1">
          <mxGeometry x="410" y="270" width="100" height="40" as="geometry" />
        </mxCell>
        <mxCell id="WP7a5tdKXRNmzQLdABPu-73" value="cod_barras" style="ellipse;whiteSpace=wrap;html=1;align=center;" vertex="1" parent="1">
          <mxGeometry x="410" y="317.5" width="100" height="40" as="geometry" />
        </mxCell>
        <mxCell id="WP7a5tdKXRNmzQLdABPu-74" style="edgeStyle=orthogonalEdgeStyle;rounded=0;orthogonalLoop=1;jettySize=auto;html=1;exitX=0.5;exitY=1;exitDx=0;exitDy=0;" edge="1" parent="1" source="WP7a5tdKXRNmzQLdABPu-67" target="WP7a5tdKXRNmzQLdABPu-67">
          <mxGeometry relative="1" as="geometry" />
        </mxCell>
        <mxCell id="WP7a5tdKXRNmzQLdABPu-89" value="PAGAMENTO" style="whiteSpace=wrap;html=1;align=center;" vertex="1" parent="1">
          <mxGeometry x="-60" y="482.5" width="130" height="50" as="geometry" />
        </mxCell>
        <mxCell id="WP7a5tdKXRNmzQLdABPu-90" value="id_pagamento" style="ellipse;whiteSpace=wrap;html=1;align=center;fontStyle=4;" vertex="1" parent="1">
          <mxGeometry x="80" y="485" width="100" height="45" as="geometry" />
        </mxCell>
        <mxCell id="WP7a5tdKXRNmzQLdABPu-91" value="dinheiro" style="ellipse;whiteSpace=wrap;html=1;align=center;" vertex="1" parent="1">
          <mxGeometry x="-170" y="430" width="105" height="40" as="geometry" />
        </mxCell>
        <mxCell id="WP7a5tdKXRNmzQLdABPu-92" value="cartao_cred" style="ellipse;whiteSpace=wrap;html=1;align=center;" vertex="1" parent="1">
          <mxGeometry x="-55" y="430" width="105" height="40" as="geometry" />
        </mxCell>
        <mxCell id="WP7a5tdKXRNmzQLdABPu-93" value="cartao_deb" style="ellipse;whiteSpace=wrap;html=1;align=center;" vertex="1" parent="1">
          <mxGeometry x="62.5" y="430" width="100" height="40" as="geometry" />
        </mxCell>
        <mxCell id="WP7a5tdKXRNmzQLdABPu-94" value="cheque" style="ellipse;whiteSpace=wrap;html=1;align=center;" vertex="1" parent="1">
          <mxGeometry x="-170" y="480" width="100" height="40" as="geometry" />
        </mxCell>
        <mxCell id="WP7a5tdKXRNmzQLdABPu-95" value="pix" style="ellipse;whiteSpace=wrap;html=1;align=center;" vertex="1" parent="1">
          <mxGeometry x="-170" y="530" width="100" height="40" as="geometry" />
        </mxCell>
        <mxCell id="WP7a5tdKXRNmzQLdABPu-97" value="data_validade" style="ellipse;whiteSpace=wrap;html=1;align=center;" vertex="1" parent="1">
          <mxGeometry x="545" y="320" width="100" height="40" as="geometry" />
        </mxCell>
        <mxCell id="WP7a5tdKXRNmzQLdABPu-98" value="qntd_estoque" style="ellipse;whiteSpace=wrap;html=1;align=center;" vertex="1" parent="1">
          <mxGeometry x="670" y="320" width="100" height="40" as="geometry" />
        </mxCell>
        <mxCell id="WP7a5tdKXRNmzQLdABPu-99" value="boleto" style="ellipse;whiteSpace=wrap;html=1;align=center;" vertex="1" parent="1">
          <mxGeometry x="-67.5" y="550" width="105" height="40" as="geometry" />
        </mxCell>
        <mxCell id="WP7a5tdKXRNmzQLdABPu-102" value="qntd_parc" style="ellipse;whiteSpace=wrap;html=1;align=center;" vertex="1" parent="1">
          <mxGeometry x="50" y="550" width="105" height="40" as="geometry" />
        </mxCell>
        <mxCell id="WP7a5tdKXRNmzQLdABPu-119" value="FORNECEDOR" style="whiteSpace=wrap;html=1;align=center;" vertex="1" parent="1">
          <mxGeometry x="520" y="470" width="130" height="50" as="geometry" />
        </mxCell>
        <mxCell id="WP7a5tdKXRNmzQLdABPu-120" value="id_fornecedor" style="ellipse;whiteSpace=wrap;html=1;align=center;fontStyle=4;" vertex="1" parent="1">
          <mxGeometry x="660" y="447.5" width="100" height="45" as="geometry" />
        </mxCell>
        <mxCell id="WP7a5tdKXRNmzQLdABPu-121" value="nome" style="ellipse;whiteSpace=wrap;html=1;align=center;" vertex="1" parent="1">
          <mxGeometry x="407.5" y="400" width="105" height="40" as="geometry" />
        </mxCell>
        <mxCell id="WP7a5tdKXRNmzQLdABPu-122" value="cnpj" style="ellipse;whiteSpace=wrap;html=1;align=center;" vertex="1" parent="1">
          <mxGeometry x="532.5" y="400" width="105" height="40" as="geometry" />
        </mxCell>
        <mxCell id="WP7a5tdKXRNmzQLdABPu-123" value="produto" style="ellipse;whiteSpace=wrap;html=1;align=center;" vertex="1" parent="1">
          <mxGeometry x="660" y="400" width="100" height="40" as="geometry" />
        </mxCell>
        <mxCell id="WP7a5tdKXRNmzQLdABPu-124" value="preco" style="ellipse;whiteSpace=wrap;html=1;align=center;" vertex="1" parent="1">
          <mxGeometry x="410" y="450" width="100" height="40" as="geometry" />
        </mxCell>
        <mxCell id="WP7a5tdKXRNmzQLdABPu-125" value="num_contrato" style="ellipse;whiteSpace=wrap;html=1;align=center;" vertex="1" parent="1">
          <mxGeometry x="407.5" y="505" width="100" height="40" as="geometry" />
        </mxCell>
        <mxCell id="WP7a5tdKXRNmzQLdABPu-126" style="edgeStyle=orthogonalEdgeStyle;rounded=0;orthogonalLoop=1;jettySize=auto;html=1;exitX=0.5;exitY=1;exitDx=0;exitDy=0;" edge="1" parent="1" source="WP7a5tdKXRNmzQLdABPu-123" target="WP7a5tdKXRNmzQLdABPu-123">
          <mxGeometry relative="1" as="geometry" />
        </mxCell>
        <mxCell id="WP7a5tdKXRNmzQLdABPu-127" value="&amp;nbsp;servico" style="ellipse;whiteSpace=wrap;html=1;align=center;" vertex="1" parent="1">
          <mxGeometry x="660" y="505" width="100" height="40" as="geometry" />
        </mxCell>
        <mxCell id="WP7a5tdKXRNmzQLdABPu-129" value="telefone" style="ellipse;shape=doubleEllipse;margin=3;whiteSpace=wrap;html=1;align=center;" vertex="1" parent="1">
          <mxGeometry x="660" y="560" width="100" height="40" as="geometry" />
        </mxCell>
        <mxCell id="WP7a5tdKXRNmzQLdABPu-130" value="email" style="ellipse;whiteSpace=wrap;html=1;align=center;" vertex="1" parent="1">
          <mxGeometry x="407.5" y="560" width="100" height="40" as="geometry" />
        </mxCell>
        <mxCell id="WP7a5tdKXRNmzQLdABPu-132" value="endereco" style="ellipse;whiteSpace=wrap;html=1;align=center;" vertex="1" parent="1">
          <mxGeometry x="532.5" y="560" width="100" height="40" as="geometry" />
        </mxCell>
        <mxCell id="WP7a5tdKXRNmzQLdABPu-133" value="SERVICO" style="whiteSpace=wrap;html=1;align=center;" vertex="1" parent="1">
          <mxGeometry x="-488.75" y="280" width="130" height="50" as="geometry" />
        </mxCell>
        <mxCell id="WP7a5tdKXRNmzQLdABPu-134" value="id_servico" style="ellipse;whiteSpace=wrap;html=1;align=center;fontStyle=4;" vertex="1" parent="1">
          <mxGeometry x="-350" y="270" width="100" height="45" as="geometry" />
        </mxCell>
        <mxCell id="WP7a5tdKXRNmzQLdABPu-135" value="desc_servico" style="ellipse;whiteSpace=wrap;html=1;align=center;" vertex="1" parent="1">
          <mxGeometry x="-600" y="215" width="105" height="40" as="geometry" />
        </mxCell>
        <mxCell id="WP7a5tdKXRNmzQLdABPu-136" value="tipo" style="ellipse;whiteSpace=wrap;html=1;align=center;" vertex="1" parent="1">
          <mxGeometry x="-485" y="215" width="105" height="40" as="geometry" />
        </mxCell>
        <mxCell id="WP7a5tdKXRNmzQLdABPu-137" value="num_ordemservico" style="ellipse;whiteSpace=wrap;html=1;align=center;" vertex="1" parent="1">
          <mxGeometry x="-352.5" y="215" width="100" height="40" as="geometry" />
        </mxCell>
        <mxCell id="WP7a5tdKXRNmzQLdABPu-138" value="data_fim" style="ellipse;whiteSpace=wrap;html=1;align=center;" vertex="1" parent="1">
          <mxGeometry x="-600" y="265" width="100" height="40" as="geometry" />
        </mxCell>
        <mxCell id="WP7a5tdKXRNmzQLdABPu-139" value="preco" style="ellipse;whiteSpace=wrap;html=1;align=center;" vertex="1" parent="1">
          <mxGeometry x="-600" y="315" width="100" height="40" as="geometry" />
        </mxCell>
        <mxCell id="WP7a5tdKXRNmzQLdABPu-140" value="status" style="ellipse;whiteSpace=wrap;html=1;align=center;" vertex="1" parent="1">
          <mxGeometry x="-550" y="360" width="105" height="40" as="geometry" />
        </mxCell>
        <mxCell id="WP7a5tdKXRNmzQLdABPu-141" value="data_inicio" style="ellipse;whiteSpace=wrap;html=1;align=center;" vertex="1" parent="1">
          <mxGeometry x="-355" y="325" width="105" height="40" as="geometry" />
        </mxCell>
        <mxCell id="WP7a5tdKXRNmzQLdABPu-142" value="PRODUTO" style="whiteSpace=wrap;html=1;align=center;" vertex="1" parent="1">
          <mxGeometry x="-481.25" y="482.5" width="130" height="50" as="geometry" />
        </mxCell>
        <mxCell id="WP7a5tdKXRNmzQLdABPu-143" value="desc_produto" style="ellipse;whiteSpace=wrap;html=1;align=center;" vertex="1" parent="1">
          <mxGeometry x="-580" y="430" width="105" height="40" as="geometry" />
        </mxCell>
        <mxCell id="WP7a5tdKXRNmzQLdABPu-144" value="nome" style="ellipse;whiteSpace=wrap;html=1;align=center;" vertex="1" parent="1">
          <mxGeometry x="-460" y="430" width="105" height="40" as="geometry" />
        </mxCell>
        <mxCell id="WP7a5tdKXRNmzQLdABPu-146" value="marca" style="ellipse;whiteSpace=wrap;html=1;align=center;" vertex="1" parent="1">
          <mxGeometry x="-595" y="485" width="100" height="40" as="geometry" />
        </mxCell>
        <mxCell id="WP7a5tdKXRNmzQLdABPu-147" value="preco" style="ellipse;whiteSpace=wrap;html=1;align=center;" vertex="1" parent="1">
          <mxGeometry x="-570" y="532.5" width="100" height="40" as="geometry" />
        </mxCell>
        <mxCell id="WP7a5tdKXRNmzQLdABPu-148" value="especie" style="ellipse;whiteSpace=wrap;html=1;align=center;" vertex="1" parent="1">
          <mxGeometry x="-340" y="450" width="105" height="40" as="geometry" />
        </mxCell>
        <mxCell id="WP7a5tdKXRNmzQLdABPu-149" value="tipo_de_uso" style="ellipse;whiteSpace=wrap;html=1;align=center;" vertex="1" parent="1">
          <mxGeometry x="-457.5" y="545" width="105" height="40" as="geometry" />
        </mxCell>
        <mxCell id="WP7a5tdKXRNmzQLdABPu-150" value="id_produto" style="ellipse;whiteSpace=wrap;html=1;align=center;fontStyle=4;" vertex="1" parent="1">
          <mxGeometry x="-340" y="500" width="100" height="45" as="geometry" />
        </mxCell>
        <mxCell id="WP7a5tdKXRNmzQLdABPu-151" value="castrado" style="ellipse;whiteSpace=wrap;html=1;align=center;" vertex="1" parent="1">
          <mxGeometry x="350" y="-85" width="100" height="40" as="geometry" />
        </mxCell>
        <mxCell id="WP7a5tdKXRNmzQLdABPu-152" value="vacinado" style="ellipse;whiteSpace=wrap;html=1;align=center;" vertex="1" parent="1">
          <mxGeometry x="480" y="-150" width="100" height="40" as="geometry" />
        </mxCell>
        <mxCell id="WP7a5tdKXRNmzQLdABPu-153" value="preco" style="ellipse;whiteSpace=wrap;html=1;align=center;" vertex="1" parent="1">
          <mxGeometry x="464" y="-10" width="100" height="40" as="geometry" />
        </mxCell>
        <mxCell id="WP7a5tdKXRNmzQLdABPu-155" value="produto" style="ellipse;whiteSpace=wrap;html=1;align=center;" vertex="1" parent="1">
          <mxGeometry x="-440" y="360" width="105" height="40" as="geometry" />
        </mxCell>
        <mxCell id="WP7a5tdKXRNmzQLdABPu-181" value="NOTA FISCAL" style="whiteSpace=wrap;html=1;align=center;" vertex="1" parent="1">
          <mxGeometry x="-506.25" y="82.5" width="130" height="50" as="geometry" />
        </mxCell>
        <mxCell id="WP7a5tdKXRNmzQLdABPu-182" value="desc_produto" style="ellipse;whiteSpace=wrap;html=1;align=center;" vertex="1" parent="1">
          <mxGeometry x="-620" y="30" width="105" height="40" as="geometry" />
        </mxCell>
        <mxCell id="WP7a5tdKXRNmzQLdABPu-183" value="nome" style="ellipse;whiteSpace=wrap;html=1;align=center;" vertex="1" parent="1">
          <mxGeometry x="-493.75" y="30" width="105" height="40" as="geometry" />
        </mxCell>
        <mxCell id="WP7a5tdKXRNmzQLdABPu-184" value="marca" style="ellipse;whiteSpace=wrap;html=1;align=center;" vertex="1" parent="1">
          <mxGeometry x="-620" y="85" width="100" height="40" as="geometry" />
        </mxCell>
        <mxCell id="WP7a5tdKXRNmzQLdABPu-185" value="preco" style="ellipse;whiteSpace=wrap;html=1;align=center;" vertex="1" parent="1">
          <mxGeometry x="-620" y="140" width="100" height="40" as="geometry" />
        </mxCell>
        <mxCell id="WP7a5tdKXRNmzQLdABPu-186" value="preco" style="ellipse;whiteSpace=wrap;html=1;align=center;" vertex="1" parent="1">
          <mxGeometry x="-367.5" y="30" width="105" height="40" as="geometry" />
        </mxCell>
        <mxCell id="WP7a5tdKXRNmzQLdABPu-187" value="" style="ellipse;whiteSpace=wrap;html=1;align=center;" vertex="1" parent="1">
          <mxGeometry x="-365" y="140" width="105" height="40" as="geometry" />
        </mxCell>
        <mxCell id="WP7a5tdKXRNmzQLdABPu-188" value="id_notafiscal" style="ellipse;whiteSpace=wrap;html=1;align=center;fontStyle=4;" vertex="1" parent="1">
          <mxGeometry x="-362.5" y="82.5" width="100" height="45" as="geometry" />
        </mxCell>
      </root>
    </mxGraphModel>
  </diagram>
</mxfile>
